{"title":"Destined To Ride 2018 Movies 720p HDRip x264 5.1 +Sample ☻rDX☻","magnet":"magnet:?xt=urn:btih:b2d59b06f6d23eec592bedf1d7ff372d13333398&dn=Destined+To+Ride+2018+Movies+720p+HDRip+x264+5.1+%2BSample+%E2%98%BBrDX%E2%98%BB&tr=udp%3A%2F%2Ftracker.leechers-paradise.org%3A6969&tr=udp%3A%2F%2Fzer0day.ch%3A1337&tr=udp%3A%2F%2Fopen.demonii.com%3A1337&tr=udp%3A%2F%2Ftracker.coppersurfer.tk%3A6969&tr=udp%3A%2F%2Fexodus.desync.com%3A6969","uploader":"basicssom","categoryP":"video","categoryS":"hd___movies","size":"948981638","seeders":"0","leechers":"57","description":"----------------------------------------------------------------\r\nDestined To Ride 2018 Movies 720p HDRip x264 5.1 with Sample &#x263B;rDX&#x263B;\r\n\r\nSCREEN SHOTS &amp; POSTER:\r\n   <a href=\"\nhttp://iphonehosting.eu/2018/8/a/tourist/index.html\" rel=\"nofollow\" target=\"_NEW\">\nhttp://iphonehosting.eu/2018/8/a/tourist/index.html</a> <a href=\"\nhttp://iphonehosting.eu/2018/8/a/tourist/1.html\" rel=\"nofollow\" target=\"_NEW\">\nhttp://iphonehosting.eu/2018/8/a/tourist/1.html</a> <a href=\"\nhttp://iphonehosting.eu/2018/8/a/tourist/2.html\" rel=\"nofollow\" target=\"_NEW\">\nhttp://iphonehosting.eu/2018/8/a/tourist/2.html</a>   <a href=\"\nhttp://iphonehosting.eu/2018/8/a/tourist/3.html\" rel=\"nofollow\" target=\"_NEW\">\nhttp://iphonehosting.eu/2018/8/a/tourist/3.html</a>   <a href=\"\nhttp://iphonehosting.eu/2018/8/a/tourist/4.html\" rel=\"nofollow\" target=\"_NEW\">\nhttp://iphonehosting.eu/2018/8/a/tourist/4.html</a>   <a href=\"\nhttp://iphonehosting.eu/2018/8/a/tourist/5.html\" rel=\"nofollow\" target=\"_NEW\">\nhttp://iphonehosting.eu/2018/8/a/tourist/5.html</a>   <a href=\"\nhttp://iphonehosting.eu/2018/8/a/tourist/6.html\" rel=\"nofollow\" target=\"_NEW\">\nhttp://iphonehosting.eu/2018/8/a/tourist/6.html</a>   <a href=\"\nhttp://iphonehosting.eu/2018/8/a/tourist/7.html\" rel=\"nofollow\" target=\"_NEW\">\nhttp://iphonehosting.eu/2018/8/a/tourist/7.html</a>   <a href=\"\nhttp://iphonehosting.eu/2018/8/a/tourist/8.html\" rel=\"nofollow\" target=\"_NEW\">\nhttp://iphonehosting.eu/2018/8/a/tourist/8.html</a>   <a href=\"\nhttp://iphonehosting.eu/2018/8/a/tourist/9.html\" rel=\"nofollow\" target=\"_NEW\">\nhttp://iphonehosting.eu/2018/8/a/tourist/9.html</a>   <a href=\"\nhttp://iphonehosting.eu/2018/8/a/tourist/10.html\" rel=\"nofollow\" target=\"_NEW\">\nhttp://iphonehosting.eu/2018/8/a/tourist/10.html</a>\r\n\r\nFile size                                : 896 MiB\r\nDuration                                 : 1 h 30 min\r\nOverall bit rate                         : 1 385 kb/s\r\nMovie name                               : Destined To Ride 2018 Movies 720p HDRip x264 5.1 &#x263B;rDX&#x263B;\r\n\r\nVideo\r\nID                                       : 2\r\nFormat                                   : AVC\r\nFormat/Info                              : Advanced Video Codec\r\nFormat profile                           : High@L4.1\r\nFormat settings, CABAC                   : Yes\r\nFormat settings, ReFrames                : 8 frames\r\nCodec ID                                 : V_MPEG4/ISO/AVC\r\nDuration                                 : 1 h 30 min\r\nBit rate                                 : 1 000 kb/s\r\nWidth                                    : 1 280 pixels\r\nHeight                                   : 712 pixels\r\nDisplay aspect ratio                     : 16:9\r\nFrame rate mode                          : Constant\r\nFrame rate                               : 23.976 (24000/1001) FPS\r\nColor space                              : YUV\r\nChroma subsampling                       : 4:2:0\r\nBit depth                                : 8 bits\r\nScan type                                : Progressive\r\nBits/(Pixel*Frame)                       : 0.046\r\nStream size                              : 630 MiB (70%)\r\nTitle                                    : &#x263B;rDX&#x263B;\r\nWriting library                          : x264\r\n\r\nAudio\r\nID                                       : 1\r\nFormat                                   : AC-3\r\nFormat/Info                              : Audio Coding 3\r\nMode extension                           : CM (complete main)\r\nFormat settings, Endianness              : Big\r\nCodec ID                                 : A_AC3\r\nDuration                                 : 1 h 30 min\r\nBit rate mode                            : Constant\r\nBit rate                                 : 384 kb/s\r\nChannel(s)                               : 6 channels\r\nChannel positions                        : Front: L C R, Side: L R, LFE\r\nSampling rate                            : 48.0 kHz\r\nFrame rate                               : 31.250 FPS (1536 spf)\r\nBit depth                                : 16 bits\r\nCompression mode                         : Lossy\r\nDelay relative to video                  : -21 ms\r\nStream size                              : 248 MiB (28%)\r\nTitle                                    : &#x263B;rDX&#x263B;\r\nDefault                                  : Yes\r\nForced                                   : No","last_updated":"2018-08-20T12:11:25.047Z","parsed":{"xt":"urn:btih:b2d59b06f6d23eec592bedf1d7ff372d13333398","dn":"Destined To Ride 2018 Movies 720p HDRip x264 5.1  Sample ☻rDX☻","tr":["udp://exodus.desync.com:6969","udp://open.demonii.com:1337","udp://tracker.coppersurfer.tk:6969","udp://tracker.leechers-paradise.org:6969","udp://zer0day.ch:1337"],"infoHash":"b2d59b06f6d23eec592bedf1d7ff372d13333398","infoHashBuffer":{"type":"Buffer","data":[178,213,155,6,246,210,62,236,89,43,237,241,215,255,55,45,19,51,51,152]},"name":"Destined To Ride 2018 Movies 720p HDRip x264 5.1  Sample ☻rDX☻","announce":["udp://exodus.desync.com:6969","udp://open.demonii.com:1337","udp://tracker.coppersurfer.tk:6969","udp://tracker.leechers-paradise.org:6969","udp://zer0day.ch:1337"],"urlList":[]}}